Coordinates
version=1
nRows=24
nColumns=24
inDegrees=yes

Units are S.I. units (second, meters, Newtons, ...)
Angles are in degrees.

endheader
time	pelvis_tilt	pelvis_list	pelvis_rotation	pelvis_tx	pelvis_ty	pelvis_tz	hip_flexion_r	hip_adduction_r	hip_rotation_r	knee_angle_r	ankle_angle_r	subtalar_angle_r	mtp_angle_r	hip_flexion_l	hip_adduction_l	hip_rotation_l	knee_angle_l	ankle_angle_l	subtalar_angle_l	mtp_angle_l	lumbar_extension	lumbar_bending	lumbar_rotation
      1.16733333	     -7.92886371	     -4.32413651	     -5.32252972	     -0.06610919	      0.99007143	      0.28599364	     -7.36126184	      9.76131961	      0.96646485	     -8.60153134	     15.11040881	      5.47434556	      9.48453665	     29.55504739	     -3.97692960	    -12.76316175	      8.51915226	      3.75138556	      7.87092413	      1.90897453	      4.27301703	      4.98799983	      9.82123175
      1.17150000	     -7.91177143	     -4.16670106	     -5.39563874	     -0.06019424	      0.98923450	      0.28594441	     -7.56866927	      9.54555215	      1.06277446	     -8.93556201	     15.27310459	      5.47583440	      9.49838492	     29.62755754	     -3.78650171	    -12.71563548	      7.99139597	      3.89295135	      7.71555325	      1.96834968	      4.32304898	      4.78144114	      9.89462916
      1.17566667	     -7.89843203	     -3.98494935	     -5.47008987	     -0.05424479	      0.98841378	      0.28588470	     -7.73784846	      9.29814265	      1.09053009	     -9.33807729	     15.49241302	      5.64022012	      9.55096408	     29.70439766	     -3.57868137	    -12.66718211	      7.41114259	      3.94897868	      7.52062709	      2.28090999	      4.37394133	      4.56528639	     10.15744496
      1.17983333	     -7.86528174	     -3.80090124	     -5.51295353	     -0.04824343	      0.98765009	      0.28583044	     -7.95091067	      9.06544612	      1.20440147	     -9.68801014	     15.58224691	      5.53886941	      9.56150557	     29.77300464	     -3.36375697	    -12.58471416	      6.75704056	      4.02135203	      7.32944486	      2.34416273	      4.39867332	      4.32452032	     10.15673942
      1.18400000	     -7.82195227	     -3.60238893	     -5.55222040	     -0.04219943	      0.98692706	      0.28578848	     -8.15989887	      8.82087063	      1.32259848	    -10.07022253	     15.66993222	      5.42620784	      9.57432377	     29.82677141	     -3.13915715	    -12.48702815	      6.07337312	      4.01744594	      7.09707186	      2.42309460	      4.43078161	      4.05503044	     10.18701887
      1.18816667	     -7.77745497	     -3.40775438	     -5.59164032	     -0.03612892	      0.98623771	      0.28577140	     -8.37045961	      8.58852009	      1.49609828	    -10.45092860	     15.70176526	      5.24434615	      9.64375128	     29.83391791	     -2.91804978	    -12.15829340	      5.45655460	      3.75746817	      6.41754299	      2.90625305	      4.45975884	      3.79571350	     10.35363120
      1.19233333	     -7.71783308	     -3.19873665	     -5.60695450	     -0.03000976	      0.98559846	      0.28571931	     -8.58488084	      8.34504608	      1.64451014	    -10.85349258	     15.70328141	      5.02580125	      9.75493965	     29.84356690	     -2.67512603	    -11.87553873	      4.78137179	      3.49961709	      5.85507419	      3.63272244	      4.47136876	      3.50708192	     10.32229690
      1.19650000	     -7.66077642	     -2.96985636	     -5.60626864	     -0.02384422	      0.98498539	      0.28564674	     -8.77647328	      8.08247727	      1.73905188	    -11.29401677	     15.73159711	      4.87303206	      9.77713744	     29.89434633	     -2.41434644	    -11.73033738	      4.00474674	      3.37257137	      5.61100272	      3.75966517	      4.53100888	      3.17211211	     10.35872388
      1.20066667	     -7.61157196	     -2.75727886	     -5.60397912	     -0.01768453	      0.98440380	      0.28557664	     -8.95806610	      7.84983022	      1.92032378	    -11.73469630	     15.64480490	      4.56956164	      9.86112141	     29.89227171	     -2.16008547	    -11.24957765	      3.35198231	      2.89657990	      4.71879339	      4.20891601	      4.54868803	      2.89630889	     10.43360584
      1.20483333	     -7.52228979	     -2.50785798	     -5.56619554	     -0.01143196	      0.98390815	      0.28543904	     -9.16356890	      7.56960197	      1.97076024	    -12.20675270	     15.55779837	      4.42551369	     10.59934335	     29.86704043	     -1.85262349	    -10.87757331	      2.66047169	      2.37830608	      4.00800517	      7.51197222	      4.54412950	      2.54029199	     10.34547154
      1.20900000	     -7.51199394	     -2.28201312	     -5.56627089	     -0.00524298	      0.98335636	      0.28537123	     -9.27002075	      7.33981232	      2.21363716	    -12.71299756	     15.42562246	      3.98613288	     10.62459605	     29.92617321	     -1.59571862	    -10.44588389	      1.95191794	      1.85959184	      3.25149953	      7.57570314	      4.64209338	      2.23656900	     10.46028126
      1.21316667	     -7.45821036	     -2.03392306	     -5.52534008	      0.00100527	      0.98290661	      0.28521838	     -9.40473551	      7.08085148	      2.34647004	    -13.24800311	     15.27051587	      3.67257148	     10.67466991	     29.92551073	     -1.28733519	     -9.91851334	      1.27674846	      1.24685838	      2.34164416	      7.66626897	      4.68318207	      1.89136707	     10.43745378
      1.21733333	     -7.43183617	     -1.78345078	     -5.48239728	      0.00726609	      0.98247090	      0.28505206	     -9.48768486	      6.82627621	      2.48463375	    -13.82429668	     15.07151859	      3.33394519	     10.74341112	     29.95804560	     -0.97822445	     -9.38383690	      0.59076536	      0.58518707	      1.42688201	      7.76542970	      4.76537028	      1.54802600	     10.42395461
      1.22150000	     -7.38774199	     -1.52523663	     -5.42593769	      0.01353963	      0.98210751	      0.28485150	     -9.56961447	      6.56466020	      2.60192638	    -14.43467122	     14.83424603	      2.99041983	     10.83626730	     29.97071601	     -0.65211147	     -8.81840863	     -0.09227191	     -0.11095253	      0.47666709	      7.87235753	      4.82527288	      1.18920433	     10.39630421
      1.22566667	     -7.35201891	     -1.26224815	     -5.35389045	      0.01982375	      0.98178260	      0.28461115	     -9.62052969	      6.30308086	      2.70227755	    -15.08292030	     14.55879946	      2.64872563	     10.96133877	     29.99579977	     -0.31316003	     -8.22554990	     -0.78309074	     -0.81734986	     -0.47922584	      7.98767431	      4.89393715	      0.82492239	     10.35830664
      1.22983333	     -7.32373772	     -0.99224138	     -5.28116078	      0.02611652	      0.98150919	      0.28434826	     -9.63585340	      6.03450445	      2.78781179	    -15.78020101	     14.24198091	      2.31305942	     11.10746698	     30.03308996	      0.03232344	     -7.65808136	     -1.48636618	     -1.53065303	     -1.40479533	      8.09161331	      4.97584738	      0.45687810	     10.31021315
      1.23400000	     -7.29068958	     -0.71870851	     -5.19571273	      0.03241647	      0.98129461	      0.28404759	     -9.63100967	      5.76336538	      2.84760964	    -16.52090492	     13.87950147	      1.98592026	     11.28470167	     30.07000267	      0.38827121	     -7.08468841	     -2.20328723	     -2.21835852	     -2.31031347	      8.18740859	      5.04856305	      0.08069797	     10.25302829
      1.23816667	     -7.26574740	     -0.43829894	     -5.10621209	      0.03872588	      0.98113034	      0.28372794	     -9.58793812	      5.48449758	      2.88370250	    -17.31175727	     13.47638632	      1.68035342	     11.48938591	     30.11977514	      0.75140554	     -6.53328001	     -2.93760612	     -2.87172407	     -3.17011758	      8.26610839	      5.13351913	     -0.30096687	     10.18878327
      1.24233333	     -7.21649078	     -0.15437503	     -5.00565044	      0.04503609	      0.98105578	      0.28337149	     -9.54429416	      5.19960115	      2.88915473	    -18.14680352	     13.02175114	      1.39322199	     11.73397084	     30.14800262	      1.12601725	     -5.99714536	     -3.68703588	     -3.46967026	     -3.98487422	      8.32906642	      5.18369914	     -0.69171419	     10.11352420
      1.24650000	     -7.17519751	      0.13200527	     -4.90217816	      0.05134951	      0.98102764	      0.28299484	     -9.46018571	      4.90971811	      2.86603162	    -19.03541609	     12.52247562	      1.13183068	     12.00846367	     30.19098257	      1.50220356	     -5.49785297	     -4.46084468	     -4.00280042	     -4.73174878	      8.36911588	      5.24431141	     -1.08148307	     10.03266995
      1.25066667	     -7.13015320	      0.41862100	     -4.79363332	      0.05766351	      0.98106477	      0.28259473	     -9.34980283	      4.61624109	      2.81469073	    -19.97242588	     11.96689347	      0.89654718	     12.33200497	     30.23184471	      1.88158312	     -5.01896607	     -5.25066273	     -4.46339537	     -5.42760644	      8.38550143	      5.29667757	     -1.47327194	      9.94531839
      1.25483333	     -7.05510103	      0.70684943	     -4.69211396	      0.06397822	      0.98120672	      0.28218172	     -9.23894197	      4.30962761	      2.73779593	    -20.96088389	     11.34263350	      0.72361789	     12.83756986	     30.23445452	      2.26375568	     -4.56193799	     -6.04374704	     -4.80869327	     -6.10576991	      8.36939659	      5.30867202	     -1.86553874	      9.84418453
      1.25900000	     -6.97478501	      1.00481401	     -4.56669219	      0.07029969	      0.98138773	      0.28172326	     -9.09915211	      3.98341054	      2.56888200	    -21.99774464	     10.64343402	      0.57511565	     16.48689207	     30.24911587	      2.65976961	     -4.21149049	     -6.87993842	     -5.07906407	     -6.53504222	      7.98881492	      5.31754396	     -2.27965459	      9.78001799
      1.26316667	     -6.89509175	      1.27793343	     -4.44313430	      0.07659562	      0.98163296	      0.28127148	     -8.93482739	      3.68942524	      2.43552906	    -23.07483709	      9.90424903	      0.37818907	     16.53351209	     30.25744029	      3.03121599	     -3.86136966	     -7.71568908	     -5.29437203	     -6.97266076	      7.96485848	      5.31917039	     -2.65473275	      9.66089186
